# Blender v2.79 (sub 0) OBJ File: 'dach.blend'
# www.blender.org
mtllib dach.mtl
o Cube
v 10.000000 -0.300000 -9.999999
v 10.000000 -0.300000 10.000000
v -10.000001 -0.300000 9.999998
v -9.999996 -0.300000 -10.000004
v 10.000005 0.300000 -9.999994
v 9.999993 0.300000 10.000006
v -10.000004 0.300000 9.999996
v -9.999999 0.300000 -10.000000
v 7.593641 1.092498 -7.593633
v 7.593632 1.092498 7.593643
v -7.593641 1.092498 7.593636
v -7.593637 1.092498 -7.593637
v 7.593641 2.035948 -7.593633
v 7.593632 2.035948 7.593643
v -7.593641 2.035948 7.593636
v -7.593637 2.035948 -7.593637
v 5.519957 2.979398 -5.519950
v 5.519950 2.979398 5.519958
v -5.519957 2.979398 5.519953
v -5.519955 2.979398 -5.519953
v 5.519957 3.998324 -5.519950
v 5.519950 3.998324 5.519958
v -5.519957 3.998324 5.519953
v -5.519955 3.998324 -5.519953
v 3.785410 5.017251 -3.785406
v 3.785406 5.017251 3.785414
v -3.785412 5.017251 3.785409
v -3.785410 5.017251 -3.785408
v 0.000000 5.900672 -3.500000
v 0.000000 12.900672 0.000000
v 0.682816 5.900672 -3.432748
v 1.339392 5.900672 -3.233578
v 1.944496 5.900672 -2.910143
v 2.474874 5.900672 -2.474874
v 2.910144 5.900672 -1.944496
v 3.233578 5.900672 -1.339392
v 3.432748 5.900672 -0.682816
v 3.500000 5.900672 -0.000000
v 3.432749 5.900672 0.682816
v 3.233578 5.900672 1.339391
v 2.910144 5.900672 1.944496
v 2.474874 5.900672 2.474874
v 1.944496 5.900672 2.910144
v 1.339391 5.900672 3.233578
v 0.682815 5.900672 3.432749
v -0.000001 5.900672 3.500000
v -0.682818 5.900672 3.432748
v -1.339394 5.900672 3.233578
v -1.944498 5.900672 2.910142
v -2.474875 5.900672 2.474872
v -2.910145 5.900672 1.944494
v -3.233579 5.900672 1.339389
v -3.432749 5.900672 0.682813
v -3.500000 5.900672 -0.000003
v -3.432748 5.900672 -0.682820
v -3.233577 5.900672 -1.339396
v -2.910141 5.900672 -1.944499
v -2.474870 5.900672 -2.474877
v -1.944492 5.900672 -2.910146
v -1.339387 5.900672 -3.233580
v -0.682811 5.900672 -3.432750
vt 0.174005 0.085688
vt 0.020936 0.199089
vt 0.000000 0.085688
vt 0.696018 0.085688
vt 0.522014 0.000000
vt 0.696018 0.000000
vt 0.174005 0.674260
vt 0.348009 0.759948
vt 0.174005 0.759948
vt 0.174005 0.000000
vt 0.000000 0.000000
vt 0.522014 0.759948
vt 0.348009 0.674260
vt 0.522014 0.674260
vt 0.153069 0.199089
vt 0.020936 0.333827
vt 0.368945 0.560859
vt 0.501078 0.560859
vt 0.327073 0.560859
vt 0.348009 0.674260
vt 0.522014 0.085688
vt 0.675082 0.199089
vt 0.542950 0.199089
vt 0.327073 0.426121
vt 0.212982 0.291193
vt 0.309031 0.291193
vt 0.501078 0.426121
vt 0.194940 0.560859
vt 0.542950 0.333827
vt 0.657041 0.468755
vt 0.560991 0.614272
vt 0.560991 0.468755
vt 0.675082 0.333827
vt 0.153069 0.333827
vt 0.038978 0.468755
vt 0.368945 0.426121
vt 0.483036 0.291193
vt 0.135027 0.614272
vt 0.054068 0.759949
vt 0.038978 0.614272
vt 0.135027 0.468755
vt 0.386986 0.291193
vt 0.483036 0.145676
vt 0.309031 0.145676
vt 0.386986 0.145676
vt 0.467945 0.000000
vt 0.228072 0.000000
vt 0.293940 0.000000
vt 0.641950 0.759948
vt 0.576082 0.759948
vt 0.846732 0.999963
vt 0.868264 0.000000
vt 0.852672 0.999988
vt 0.858384 1.000000
vt 0.863649 0.999997
vt 0.868264 0.999981
vt 0.825203 0.000018
vt 0.825202 1.000000
vt 0.820588 0.000002
vt 0.815323 0.000000
vt 0.809611 0.000012
vt 0.803670 0.000036
vt 0.797730 0.000074
vt 0.792018 0.000122
vt 0.786755 0.000179
vt 0.782141 0.000243
vt 0.739080 0.999757
vt 0.782141 0.000000
vt 0.743693 0.999821
vt 0.748957 0.999878
vt 0.754668 0.999926
vt 0.760609 0.999963
vt 0.766549 0.999988
vt 0.772262 1.000000
vt 0.777526 0.999998
vt 0.782141 0.999982
vt 0.739080 0.000018
vt 0.739080 1.000000
vt 0.734465 0.000002
vt 0.729200 0.000000
vt 0.723487 0.000012
vt 0.717547 0.000036
vt 0.711607 0.000074
vt 0.705895 0.000122
vt 0.700631 0.000179
vt 0.696018 0.000243
vt 0.825203 0.999757
vt 0.829816 0.999821
vt 0.835080 0.999878
vt 0.840791 0.999926
vt 0.868264 0.378416
vt 0.895258 0.252284
vt 0.901198 0.252278
vt 0.868264 0.252278
vt 0.895258 0.126145
vt 0.901198 0.126139
vt 0.901198 0.000000
vt 0.907139 0.000006
vt 0.934132 0.126139
vt 0.961125 0.000006
vt 0.967066 0.000000
vt 0.348009 0.759948
vt 0.194940 0.426121
vt 0.657041 0.614272
vt 0.119936 0.759949
vt 0.212982 0.145676
vt 0.402077 0.000000
vt 0.918116 0.252332
vt 0.922730 0.252372
vt 0.934132 0.378416
vt 0.879666 0.252372
vt 0.884281 0.252332
vt 0.889545 0.252302
vt 0.912851 0.252302
vt 0.907139 0.252284
vt 0.918116 0.126193
vt 0.922730 0.126233
vt 0.934132 0.252278
vt 0.879666 0.126233
vt 0.884281 0.126193
vt 0.889545 0.126163
vt 0.912851 0.126163
vt 0.907139 0.126145
vt 0.868264 0.126139
vt 0.879666 0.000094
vt 0.884281 0.000054
vt 0.889545 0.000024
vt 0.918116 0.000054
vt 0.922730 0.000094
vt 0.912851 0.000024
vt 0.895258 0.000006
vt 0.983984 0.000054
vt 0.988598 0.000094
vt 1.000000 0.126139
vt 0.945534 0.000094
vt 0.950148 0.000054
vt 0.955413 0.000025
vt 0.978719 0.000025
vt 0.973007 0.000006
vn -0.3128 0.9498 -0.0000
vn 1.0000 -0.0000 0.0000
vn -0.0000 -0.0000 1.0000
vn -1.0000 -0.0000 -0.0000
vn 0.0000 0.0000 -1.0000
vn 0.0000 0.9498 -0.3128
vn -0.0000 0.9498 0.3128
vn 0.3128 0.9498 0.0000
vn -0.0000 0.9102 0.4141
vn 0.4141 0.9102 0.0000
vn -0.4141 0.9102 -0.0000
vn 0.0000 0.9102 -0.4141
vn -0.5065 0.8622 -0.0000
vn 0.0000 0.8622 -0.5065
vn -0.0000 0.8622 0.5065
vn 0.5065 0.8622 0.0000
vn 0.0878 0.4455 -0.8910
vn 0.2599 0.4455 -0.8567
vn 0.4220 0.4455 -0.7896
vn 0.5680 0.4455 -0.6921
vn 0.6921 0.4455 -0.5680
vn 0.7896 0.4455 -0.4220
vn 0.8567 0.4455 -0.2599
vn 0.8910 0.4455 -0.0878
vn 0.8910 0.4455 0.0878
vn 0.8567 0.4455 0.2599
vn 0.7896 0.4455 0.4220
vn 0.6921 0.4455 0.5680
vn 0.5680 0.4455 0.6921
vn 0.4220 0.4455 0.7896
vn 0.2599 0.4455 0.8567
vn 0.0878 0.4455 0.8910
vn -0.0878 0.4455 0.8910
vn -0.2599 0.4455 0.8567
vn -0.4220 0.4455 0.7896
vn -0.5680 0.4455 0.6921
vn -0.6921 0.4455 0.5680
vn -0.7896 0.4455 0.4220
vn -0.8567 0.4455 0.2599
vn -0.8910 0.4455 0.0878
vn -0.8910 0.4455 -0.0878
vn -0.8567 0.4455 -0.2599
vn -0.7896 0.4455 -0.4220
vn -0.6921 0.4455 -0.5680
vn -0.5680 0.4455 -0.6921
vn -0.4220 0.4455 -0.7896
vn -0.2599 0.4455 -0.8567
vn -0.0878 0.4455 -0.8910
vn 0.0787 -0.5956 -0.7994
vn -0.7994 -0.5956 -0.0787
vn 0.0787 -0.5956 0.7994
vn 0.7994 -0.5956 0.0787
vn -0.2740 -0.9019 -0.3339
vn 0.2740 -0.9019 -0.3339
vn 0.2236 -0.8804 -0.4183
vn -0.2236 -0.8804 -0.4183
vn -0.1686 -0.8140 -0.5558
vn 0.0000 -0.3074 -0.9516
vn 0.1686 -0.8140 -0.5558
vn -0.0787 -0.5956 -0.7994
vn -0.3339 -0.9019 0.2740
vn -0.3339 -0.9019 -0.2740
vn -0.4183 -0.8804 -0.2236
vn -0.4183 -0.8804 0.2236
vn -0.5558 -0.8140 0.1686
vn -0.9516 -0.3074 -0.0000
vn -0.5558 -0.8140 -0.1686
vn -0.7994 -0.5956 0.0787
vn -0.2740 -0.9019 0.3339
vn -0.2236 -0.8804 0.4183
vn 0.2740 -0.9019 0.3339
vn 0.2236 -0.8804 0.4183
vn -0.0000 -0.3074 0.9516
vn -0.1686 -0.8140 0.5558
vn 0.1686 -0.8140 0.5558
vn -0.0787 -0.5956 0.7994
vn 0.3339 -0.9019 -0.2740
vn 0.3339 -0.9019 0.2740
vn 0.4183 -0.8804 0.2236
vn 0.4183 -0.8804 -0.2236
vn 0.5558 -0.8140 -0.1686
vn 0.9516 -0.3074 0.0000
vn 0.5558 -0.8140 0.1686
vn 0.7994 -0.5956 -0.0787
usemtl Material
s off
f 7/1/1 12/2/1 8/3/1
f 5/4/2 2/5/2 1/6/2
f 6/7/3 3/8/3 2/9/3
f 3/10/4 8/3/4 4/11/4
f 1/12/5 8/13/5 5/14/5
f 11/15/4 16/16/4 12/2/4
f 5/14/6 12/17/6 9/18/6
f 6/7/7 11/19/7 7/20/7
f 6/21/8 9/22/8 10/23/8
f 15/24/9 18/25/9 19/26/9
f 12/17/5 13/27/5 9/18/5
f 10/28/3 15/24/3 11/19/3
f 9/22/2 14/29/2 10/23/2
f 17/30/2 22/31/2 18/32/2
f 13/33/10 18/32/10 14/29/10
f 15/34/11 20/35/11 16/16/11
f 16/36/12 17/37/12 13/27/12
f 23/38/13 28/39/13 24/40/13
f 19/41/4 24/40/4 20/35/4
f 20/42/5 21/43/5 17/37/5
f 18/25/3 23/44/3 19/26/3
f 24/45/14 25/46/14 21/43/14
f 23/44/15 26/47/15 27/48/15
f 22/31/16 25/49/16 26/50/16
f 29/51/17 30/52/17 31/53/17
f 31/53/18 30/52/18 32/54/18
f 32/54/19 30/52/19 33/55/19
f 33/55/20 30/52/20 34/56/20
f 34/57/21 30/58/21 35/59/21
f 35/59/22 30/58/22 36/60/22
f 36/60/23 30/58/23 37/61/23
f 37/61/24 30/58/24 38/62/24
f 38/62/25 30/58/25 39/63/25
f 39/63/26 30/58/26 40/64/26
f 40/64/27 30/58/27 41/65/27
f 41/65/28 30/58/28 42/66/28
f 42/67/29 30/68/29 43/69/29
f 43/69/30 30/68/30 44/70/30
f 44/70/31 30/68/31 45/71/31
f 45/71/32 30/68/32 46/72/32
f 46/72/33 30/68/33 47/73/33
f 47/73/34 30/68/34 48/74/34
f 48/74/35 30/68/35 49/75/35
f 49/75/36 30/68/36 50/76/36
f 50/77/37 30/78/37 51/79/37
f 51/79/38 30/78/38 52/80/38
f 52/80/39 30/78/39 53/81/39
f 53/81/40 30/78/40 54/82/40
f 54/82/41 30/78/41 55/83/41
f 55/83/42 30/78/42 56/84/42
f 56/84/43 30/78/43 57/85/43
f 57/85/44 30/78/44 58/86/44
f 58/87/45 30/52/45 59/88/45
f 59/88/46 30/52/46 60/89/46
f 60/89/47 30/52/47 61/90/47
f 61/90/48 30/52/48 29/51/48
f 27/91/49 47/92/49 46/93/49
f 26/94/50 39/95/50 38/96/50
f 29/97/51 61/98/51 28/99/51
f 28/99/52 55/100/52 54/101/52
f 7/1/1 11/15/1 12/2/1
f 5/4/2 6/21/2 2/5/2
f 6/7/3 7/20/3 3/8/3
f 3/10/4 7/1/4 8/3/4
f 1/12/5 4/102/5 8/13/5
f 11/15/4 15/34/4 16/16/4
f 5/14/6 8/13/6 12/17/6
f 6/7/7 10/28/7 11/19/7
f 6/21/8 5/4/8 9/22/8
f 15/24/9 14/103/9 18/25/9
f 12/17/5 16/36/5 13/27/5
f 10/28/3 14/103/3 15/24/3
f 9/22/2 13/33/2 14/29/2
f 17/30/2 21/104/2 22/31/2
f 13/33/10 17/30/10 18/32/10
f 15/34/11 19/41/11 20/35/11
f 16/36/12 20/42/12 17/37/12
f 23/38/13 27/105/13 28/39/13
f 19/41/4 23/38/4 24/40/4
f 20/42/5 24/45/5 21/43/5
f 18/25/3 22/106/3 23/44/3
f 24/45/14 28/107/14 25/46/14
f 23/44/15 22/106/15 26/47/15
f 22/31/16 21/104/16 25/49/16
f 43/108/53 42/109/53 26/110/53
f 27/91/54 50/111/54 49/112/54
f 27/91/55 49/112/55 48/113/55
f 44/114/56 43/108/56 26/110/56
f 45/115/57 44/114/57 26/110/57
f 26/110/58 27/91/58 46/93/58
f 27/91/59 48/113/59 47/92/59
f 46/93/60 45/115/60 26/110/60
f 35/116/61 34/117/61 25/118/61
f 26/94/62 42/119/62 41/120/62
f 26/94/63 41/120/63 40/121/63
f 36/122/64 35/116/64 25/118/64
f 37/123/65 36/122/65 25/118/65
f 25/118/66 26/94/66 38/96/66
f 26/94/67 40/121/67 39/95/67
f 38/96/68 37/123/68 25/118/68
f 25/124/69 34/125/69 33/126/69
f 25/124/70 33/126/70 32/127/70
f 59/128/71 58/129/71 28/99/71
f 60/130/72 59/128/72 28/99/72
f 28/99/73 25/124/73 29/97/73
f 25/124/74 32/127/74 31/131/74
f 61/98/75 60/130/75 28/99/75
f 25/124/76 31/131/76 29/97/76
f 51/132/77 50/133/77 27/134/77
f 28/99/78 58/135/78 57/136/78
f 28/99/79 57/136/79 56/137/79
f 52/138/80 51/132/80 27/134/80
f 53/139/81 52/138/81 27/134/81
f 27/134/82 28/99/82 54/101/82
f 28/99/83 56/137/83 55/100/83
f 54/101/84 53/139/84 27/134/84
