# Blender v2.79 (sub 0) OBJ File: 'dach.blend'
# www.blender.org
mtllib dach.mtl
o Cube
v 10.000000 -0.300000 -9.999999
v 10.000000 -0.300000 10.000000
v -10.000001 -0.300000 9.999998
v -9.999996 -0.300000 -10.000004
v 10.000005 0.300000 -9.999994
v 9.999993 0.300000 10.000006
v -10.000004 0.300000 9.999996
v -9.999999 0.300000 -10.000000
v 7.593641 1.092498 -7.593633
v 7.593632 1.092498 7.593643
v -7.593641 1.092498 7.593636
v -7.593637 1.092498 -7.593637
v 7.593641 2.035948 -7.593633
v 7.593632 2.035948 7.593643
v -7.593641 2.035948 7.593636
v -7.593637 2.035948 -7.593637
v 5.519957 2.979398 -5.519950
v 5.519950 2.979398 5.519958
v -5.519957 2.979398 5.519953
v -5.519955 2.979398 -5.519953
v 5.519957 3.998324 -5.519950
v 5.519950 3.998324 5.519958
v -5.519957 3.998324 5.519953
v -5.519955 3.998324 -5.519953
v 3.785410 5.017251 -3.785406
v 3.785406 5.017251 3.785414
v -3.785412 5.017251 3.785409
v -3.785410 5.017251 -3.785408
v 0.000000 5.900672 -3.500000
v 0.000000 12.900672 0.000000
v 0.682816 5.900672 -3.432748
v 1.339392 5.900672 -3.233578
v 1.944496 5.900672 -2.910143
v 2.474874 5.900672 -2.474874
v 2.910144 5.900672 -1.944496
v 3.233578 5.900672 -1.339392
v 3.432748 5.900672 -0.682816
v 3.500000 5.900672 -0.000000
v 3.432749 5.900672 0.682816
v 3.233578 5.900672 1.339391
v 2.910144 5.900672 1.944496
v 2.474874 5.900672 2.474874
v 1.944496 5.900672 2.910144
v 1.339391 5.900672 3.233578
v 0.682815 5.900672 3.432749
v -0.000001 5.900672 3.500000
v -0.682818 5.900672 3.432748
v -1.339394 5.900672 3.233578
v -1.944498 5.900672 2.910142
v -2.474875 5.900672 2.474872
v -2.910145 5.900672 1.944494
v -3.233579 5.900672 1.339389
v -3.432749 5.900672 0.682813
v -3.500000 5.900672 -0.000003
v -3.432748 5.900672 -0.682820
v -3.233577 5.900672 -1.339396
v -2.910141 5.900672 -1.944499
v -2.474870 5.900672 -2.474877
v -1.944492 5.900672 -2.910146
v -1.339387 5.900672 -3.233580
v -0.682811 5.900672 -3.432750
vn -0.3128 0.9498 -0.0000
vn 1.0000 -0.0000 0.0000
vn -0.0000 -0.0000 1.0000
vn -1.0000 -0.0000 -0.0000
vn 0.0000 0.0000 -1.0000
vn 0.0000 0.9498 -0.3128
vn -0.0000 0.9498 0.3128
vn 0.3128 0.9498 0.0000
vn -0.0000 0.9102 0.4141
vn 0.4141 0.9102 0.0000
vn -0.4141 0.9102 -0.0000
vn 0.0000 0.9102 -0.4141
vn -0.5065 0.8622 -0.0000
vn 0.0000 0.8622 -0.5065
vn -0.0000 0.8622 0.5065
vn 0.5065 0.8622 0.0000
vn 0.0878 0.4455 -0.8910
vn 0.2599 0.4455 -0.8567
vn 0.4220 0.4455 -0.7896
vn 0.5680 0.4455 -0.6921
vn 0.6921 0.4455 -0.5680
vn 0.7896 0.4455 -0.4220
vn 0.8567 0.4455 -0.2599
vn 0.8910 0.4455 -0.0878
vn 0.8910 0.4455 0.0878
vn 0.8567 0.4455 0.2599
vn 0.7896 0.4455 0.4220
vn 0.6921 0.4455 0.5680
vn 0.5680 0.4455 0.6921
vn 0.4220 0.4455 0.7896
vn 0.2599 0.4455 0.8567
vn 0.0878 0.4455 0.8910
vn -0.0878 0.4455 0.8910
vn -0.2599 0.4455 0.8567
vn -0.4220 0.4455 0.7896
vn -0.5680 0.4455 0.6921
vn -0.6921 0.4455 0.5680
vn -0.7896 0.4455 0.4220
vn -0.8567 0.4455 0.2599
vn -0.8910 0.4455 0.0878
vn -0.8910 0.4455 -0.0878
vn -0.8567 0.4455 -0.2599
vn -0.7896 0.4455 -0.4220
vn -0.6921 0.4455 -0.5680
vn -0.5680 0.4455 -0.6921
vn -0.4220 0.4455 -0.7896
vn -0.2599 0.4455 -0.8567
vn -0.0878 0.4455 -0.8910
vn 0.0000 -1.0000 0.0000
vn 0.0787 -0.5956 -0.7994
vn -0.7994 -0.5956 -0.0787
vn 0.0787 -0.5956 0.7994
vn 0.7994 -0.5956 0.0787
vn -0.2740 -0.9019 -0.3339
vn 0.2740 -0.9019 -0.3339
vn 0.2236 -0.8804 -0.4183
vn -0.2236 -0.8804 -0.4183
vn -0.1686 -0.8140 -0.5558
vn 0.0000 -0.3074 -0.9516
vn 0.1686 -0.8140 -0.5558
vn -0.0787 -0.5956 -0.7994
vn -0.3339 -0.9019 0.2740
vn -0.3339 -0.9019 -0.2740
vn -0.4183 -0.8804 -0.2236
vn -0.4183 -0.8804 0.2236
vn -0.5558 -0.8140 0.1686
vn -0.9516 -0.3074 -0.0000
vn -0.5558 -0.8140 -0.1686
vn -0.7994 -0.5956 0.0787
vn -0.2740 -0.9019 0.3339
vn -0.2236 -0.8804 0.4183
vn 0.2740 -0.9019 0.3339
vn 0.2236 -0.8804 0.4183
vn -0.0000 -0.3074 0.9516
vn -0.1686 -0.8140 0.5558
vn 0.1686 -0.8140 0.5558
vn -0.0787 -0.5956 0.7994
vn 0.3339 -0.9019 -0.2740
vn 0.3339 -0.9019 0.2740
vn 0.4183 -0.8804 0.2236
vn 0.4183 -0.8804 -0.2236
vn 0.5558 -0.8140 -0.1686
vn 0.9516 -0.3074 0.0000
vn 0.5558 -0.8140 0.1686
vn 0.7994 -0.5956 -0.0787
usemtl Material
s off
f 7//1 12//1 8//1
f 5//2 2//2 1//2
f 6//3 3//3 2//3
f 3//4 8//4 4//4
f 1//5 8//5 5//5
f 11//4 16//4 12//4
f 5//6 12//6 9//6
f 6//7 11//7 7//7
f 6//8 9//8 10//8
f 15//9 18//9 19//9
f 12//5 13//5 9//5
f 10//3 15//3 11//3
f 9//2 14//2 10//2
f 17//2 22//2 18//2
f 13//10 18//10 14//10
f 15//11 20//11 16//11
f 16//12 17//12 13//12
f 23//13 28//13 24//13
f 19//4 24//4 20//4
f 20//5 21//5 17//5
f 18//3 23//3 19//3
f 24//14 25//14 21//14
f 23//15 26//15 27//15
f 22//16 25//16 26//16
f 29//17 30//17 31//17
f 31//18 30//18 32//18
f 32//19 30//19 33//19
f 33//20 30//20 34//20
f 34//21 30//21 35//21
f 35//22 30//22 36//22
f 36//23 30//23 37//23
f 37//24 30//24 38//24
f 38//25 30//25 39//25
f 39//26 30//26 40//26
f 40//27 30//27 41//27
f 41//28 30//28 42//28
f 42//29 30//29 43//29
f 43//30 30//30 44//30
f 44//31 30//31 45//31
f 45//32 30//32 46//32
f 46//33 30//33 47//33
f 47//34 30//34 48//34
f 48//35 30//35 49//35
f 49//36 30//36 50//36
f 50//37 30//37 51//37
f 51//38 30//38 52//38
f 52//39 30//39 53//39
f 53//40 30//40 54//40
f 54//41 30//41 55//41
f 55//42 30//42 56//42
f 56//43 30//43 57//43
f 57//44 30//44 58//44
f 58//45 30//45 59//45
f 59//46 30//46 60//46
f 60//47 30//47 61//47
f 61//48 30//48 29//48
f 45//49 53//49 61//49
f 27//50 47//50 46//50
f 26//51 39//51 38//51
f 29//52 61//52 28//52
f 28//53 55//53 54//53
f 7//1 11//1 12//1
f 5//2 6//2 2//2
f 6//3 7//3 3//3
f 3//4 7//4 8//4
f 1//5 4//5 8//5
f 11//4 15//4 16//4
f 5//6 8//6 12//6
f 6//7 10//7 11//7
f 6//8 5//8 9//8
f 15//9 14//9 18//9
f 12//5 16//5 13//5
f 10//3 14//3 15//3
f 9//2 13//2 14//2
f 17//2 21//2 22//2
f 13//10 17//10 18//10
f 15//11 19//11 20//11
f 16//12 20//12 17//12
f 23//13 27//13 28//13
f 19//4 23//4 24//4
f 20//5 24//5 21//5
f 18//3 22//3 23//3
f 24//14 28//14 25//14
f 23//15 22//15 26//15
f 22//16 21//16 25//16
f 61//49 29//49 31//49
f 31//49 32//49 33//49
f 33//49 34//49 37//49
f 35//49 36//49 37//49
f 37//49 38//49 39//49
f 39//49 40//49 37//49
f 41//49 42//49 45//49
f 43//49 44//49 45//49
f 45//49 46//49 47//49
f 47//49 48//49 49//49
f 49//49 50//49 51//49
f 51//49 52//49 53//49
f 53//49 54//49 55//49
f 55//49 56//49 53//49
f 57//49 58//49 59//49
f 59//49 60//49 61//49
f 61//49 31//49 33//49
f 34//49 35//49 37//49
f 37//49 40//49 41//49
f 42//49 43//49 45//49
f 45//49 47//49 49//49
f 49//49 51//49 53//49
f 53//49 56//49 57//49
f 57//49 59//49 53//49
f 61//49 33//49 45//49
f 37//49 41//49 45//49
f 45//49 49//49 53//49
f 53//49 59//49 61//49
f 33//49 37//49 45//49
f 43//54 42//54 26//54
f 27//55 50//55 49//55
f 27//56 49//56 48//56
f 44//57 43//57 26//57
f 45//58 44//58 26//58
f 26//59 27//59 46//59
f 27//60 48//60 47//60
f 46//61 45//61 26//61
f 35//62 34//62 25//62
f 26//63 42//63 41//63
f 26//64 41//64 40//64
f 36//65 35//65 25//65
f 37//66 36//66 25//66
f 25//67 26//67 38//67
f 26//68 40//68 39//68
f 38//69 37//69 25//69
f 25//70 34//70 33//70
f 25//71 33//71 32//71
f 59//72 58//72 28//72
f 60//73 59//73 28//73
f 28//74 25//74 29//74
f 25//75 32//75 31//75
f 61//76 60//76 28//76
f 25//77 31//77 29//77
f 51//78 50//78 27//78
f 28//79 58//79 57//79
f 28//80 57//80 56//80
f 52//81 51//81 27//81
f 53//82 52//82 27//82
f 27//83 28//83 54//83
f 28//84 56//84 55//84
f 54//85 53//85 27//85
