# Blender v2.79 (sub 0) OBJ File: 'wall.blend'
# www.blender.org
mtllib wall90.mtl
o Cube
v -9.999999 0.000000 -0.100000
v 10.000000 0.000000 -0.100000
v 9.999998 0.000000 0.100000
v -10.000004 0.000000 0.100000
v -9.999994 4.800000 -0.100000
v 10.000006 4.800000 -0.100000
v 9.999996 4.800000 0.100000
v -10.000000 4.800000 0.100000
vt 1.014840 0.999927
vt 0.000073 0.000073
vt 1.014840 0.005999
vt 0.000073 0.999927
vt 0.000000 0.000000
vt 0.000000 0.000000
vt 0.000000 0.000000
vt 0.000000 0.000000
vt 0.000000 0.000000
vt 0.000000 0.000000
vt 0.000000 0.000000
vt 0.000000 0.000000
vn -0.5773 0.5773 -0.5773
vn 0.5773 -0.5773 -0.5773
vn -0.5773 -0.5773 -0.5773
vn 0.5773 0.5773 -0.5773
vn 0.5773 -0.5773 0.5773
vn -0.5773 -0.5773 0.5773
vn 0.5773 0.5773 0.5773
vn -0.5773 0.5773 0.5773

usemtl Material_NONE
f 1/5/3 3/6/5 4/7/6
f 5/8/1 7/9/7 6/10/4
f 6/10/4 3/6/5 2/11/2
f 7/9/7 4/7/6 3/6/5
f 1/5/3 8/12/8 5/8/1
f 1/5/3 2/11/2 3/6/5
f 5/8/1 8/12/8 7/9/7
f 6/10/4 7/9/7 3/6/5
f 7/9/7 8/12/8 4/7/6
f 1/5/3 4/7/6 8/12/8
